# xmcd CD database file
#
# Track frame offsets:
#	150
#	23705
#	39900
#	55400
#	70130
#	92167
#	113987
#	131592
#	155037
#	175235
#	197784
#	218071
#	243226
#
# Disc length: 3632 seconds
#
# Revision: 0
# Processed by: cddbd v1.5.1PL0 Copyright (c) Steve Scherf et al.
# Submitted via: CDex 1.51
#
DISCID=b40e2e0d
DTITLE=GLAY - DRIVE - GLAY complete BEST DISC1
DYEAR=1999
DGENRE=JPop
TTITLE0=GLAY - Tomadoi(Jet the Phantom)
TTITLE1=GLAY - Kuchibiru
TTITLE2=GLAY - SHUTTER SPEEDS no theme
TTITLE3=GLAY - zutto futari de...
TTITLE4=GLAY - Glorious
TTITLE5=GLAY - a BOY ~zutto wasurenai~
TTITLE6=GLAY - ikiteku tsuyosa
TTITLE7=GLAY - HAPPY SWING
TTITLE8=GLAY - kanojo no"Modern..."
TTITLE9=GLAY - My Fair
TTITLE10=GLAY - SOUL LOVE
TTITLE11=GLAY - HOWEVER
TTITLE12=GLAY - I'm in Love
EXTD=YEAR: 1999
EXTT0=
EXTT1=
EXTT2=
EXTT3=
EXTT4=
EXTT5=
EXTT6=
EXTT7=
EXTT8=
EXTT9=
EXTT10=
EXTT11=
EXTT12=
PLAYORDER=
